<!--?xml version="1.0" standalone="no"?-->
              <svg id="sw-js-blob-svg" viewBox="0 0 100 100" xmlns="http://www.w3.org/2000/svg" version="1.1">
                    <defs> 
                        <linearGradient id="sw-gradient" x1="0" x2="1" y1="1" y2="0">
                            <stop id="stop1" stop-color="rgba(243, 170, 65, 1)" offset="0%"></stop>
                            <stop id="stop2" stop-color="rgba(23, 23, 23, 1)" offset="100%"></stop>
                        </linearGradient>
                    </defs>
                <path fill="rgba(243, 170, 65, 1)" d="M15.7,-14.9C23.1,-12.5,33.9,-10.2,38.2,-4.1C42.4,2.1,40.2,12,34.9,19.1C29.5,26.2,21.1,30.4,12.1,34C3.1,37.7,-6.4,40.7,-11.2,36.5C-16,32.3,-16,20.8,-19.5,12.4C-23,4,-29.9,-1.3,-29.9,-5.9C-29.8,-10.6,-22.8,-14.7,-16.6,-17.3C-10.5,-19.9,-5.2,-21.1,-0.6,-20.4C4.1,-19.8,8.3,-17.3,15.7,-14.9Z" width="100%" height="100%" transform="translate(50 50)" stroke-width="0" style="transition: all 0.3s ease 0s;" stroke="rgba(23, 23, 23, 1)"></path>
              </svg>